<?xml version="1.0" encoding="UTF-8" standalone="no"?>
<!DOCTYPE svg PUBLIC "-//W3C//DTD SVG 1.1//EN" "http://www.w3.org/Graphics/SVG/1.1/DTD/svg11.dtd">
<svg xmlns="http://www.w3.org/2000/svg" xmlns:xl="http://www.w3.org/1999/xlink" version="1.1" viewBox="-1578.5 -481 1097 1097" width="1097pt" height="1097pt" xmlns:dc="http://purl.org/dc/elements/1.1/">
  <defs/>
  <g stroke="none" stroke-opacity="1" stroke-dasharray="none" fill="none" fill-opacity="1">
    <title>Canvas 2</title>
    <g>
      <title>Layer 1</title>
      <path d="M -642.15236 -320.34764 C -427.94885 -106.14523 -427.94885 241.14523 -642.15236 455.34764 C -856.3548 669.55115 -1203.6452 669.55115 -1417.8476 455.34764 C -1632.0512 241.14523 -1632.0512 -106.14523 -1417.8476 -320.34764 C -1203.6452 -534.55115 -856.3548 -534.55115 -642.15236 -320.34764" fill="white"/>
      <path d="M -1030 -381 C -1183.5583 -381 -1319.2202 -303.95276 -1400.4375 -186.4375 L -1313.4375 -136.1875 C -1249.8153 -223.89492 -1146.5607 -281 -1030 -281 C -913.4393 -281 -810.1847 -223.89492 -746.5625 -136.1875 L -659.5625 -186.4375 C -740.7798 -303.95276 -876.4417 -381 -1030 -381 Z" fill="#329965"/>
      <path d="M -1447.8125 -98.25 C -1468.5516 -46.53336 -1480 9.90008 -1480 69 C -1480 300.50364 -1304.9025 491.3571 -1080 516.25 L -1080 415.375 C -1249.5293 391.0781 -1380 245.21538 -1380 69 C -1380 28.10844 -1372.9694 -11.13628 -1360.0625 -47.625 Z" fill="#069"/>
      <path d="M -699.9375 -47.625 C -687.0306 -11.13628 -680 28.10844 -680 69 C -680 245.21536 -810.4707 391.0781 -980 415.375 L -980 516.25 C -755.0975 491.3571 -580 300.50364 -580 69 C -580 9.90008 -591.4484 -46.53336 -612.1875 -98.25 Z" fill="#069"/>
      <path d="M -987.0157 83.69553 C -996.1955 83.82324 -985.2788 88.4259 -973.2945 90.27003 C -969.9843 87.68519 -966.9806 85.06969 -964.3038 82.52571 C -971.7671 84.35452 -979.3633 84.39538 -987.0157 83.69553" fill="#900"/>
      <path d="M -937.7452 71.41496 C -932.2793 63.869865 -928.2947 55.609595 -926.8899 47.068364 C -928.1159 53.15757 -931.4211 58.4141 -934.5321 63.961816 C -951.6912 74.766065 -936.1463 57.545676 -934.5423 51.001826 C -952.9938 74.22458 -937.076 64.9273 -937.7452 71.41496" fill="#900"/>
      <path d="M -919.5594 24.090817 C -918.4509 7.5600605 -922.8134 12.785945 -924.2795 19.09481 C -922.5682 19.98367 -921.2145 30.74705 -919.5594 24.090817" fill="#900"/>
      <path d="M -1021.8243 -201.85336 C -1016.9253 -200.97472 -1011.2397 -200.3004 -1012.0366 -199.13059 C -1006.6779 -200.30552 -1005.4621 -201.3885 -1021.8243 -201.85336" fill="#900"/>
      <path d="M -1012.0366 -199.13059 L -1015.5001 -198.41541 L -1012.2767 -198.70148 L -1012.0366 -199.13059" fill="#900"/>
      <path d="M -859.2752 30.358814 C -858.7286 45.2038 -863.6174 52.406634 -868.0259 65.15718 L -875.9592 69.12129 C -882.452 81.7288 -875.3309 77.12614 -879.9796 87.15392 C -890.1146 96.16512 -910.7372 115.35224 -917.3372 117.10442 C -922.1544 116.99714 -914.073 111.41878 -913.0155 109.23239 C -926.5834 118.55009 -923.9015 123.21916 -944.6518 128.87926 L -945.2597 127.53065 C -996.4356 151.6065 -1067.524 103.89412 -1066.5891 38.79277 C -1067.1357 42.92546 -1068.142 41.893563 -1069.2761 43.564007 C -1071.9172 10.068281 -1053.8079 -23.575589 -1023.2648 -37.312055 C -993.391 -52.10085 -958.3678 -46.03208 -936.9688 -26.088917 C -948.7232 -41.48561 -972.1196 -57.80692 -999.848 -56.279514 C -1027.0093 -55.85041 -1052.4184 -38.589153 -1060.8984 -19.85157 C -1074.8136 -11.090679 -1076.4279 13.920008 -1082.4915 18.497128 C -1090.6496 78.45432 -1067.1459 104.35898 -1027.3873 134.83054 C -1021.1295 139.05007 -1025.6249 139.68862 -1024.7769 142.9018 C -1037.9872 136.71553 -1050.0839 127.3774 -1060.0299 115.94481 C -1054.753 123.6687 -1049.0571 131.17804 -1041.6959 137.07823 C -1054.1502 132.8587 -1070.7882 106.89785 -1075.6463 105.84041 C -1054.1757 144.28106 -988.538 173.25586 -954.1687 158.88085 C -970.0712 159.46831 -990.2748 159.20778 -1008.144 152.60263 C -1015.6482 148.74069 -1025.8548 140.74095 -1024.0311 139.24419 C -977.1258 156.76597 -928.6727 152.51579 -888.0866 119.98044 C -877.7625 111.93983 -866.4832 98.25956 -863.224 98.07055 C -868.1332 105.45218 -862.3863 101.62088 -866.1562 108.13919 C -855.8679 91.54713 -870.6261 101.3859 -855.5206 79.48622 L -849.9422 87.16924 C -852.0162 73.39702 -832.8393 56.67214 -834.7856 34.889957 C -830.3873 28.228614 -829.8764 42.05703 -834.5455 57.38221 C -828.0681 40.38148 -832.8393 37.64849 -831.174 23.620845 C -829.3758 28.33589 -827.0157 33.347223 -825.8051 38.322797 C -830.0246 21.894208 -821.4731 10.655746 -819.3583 1.1081614 C -821.4425 .1835425 -825.8715 8.372295 -826.8829 -11.034486 C -826.7348 -19.463333 -824.5382 -15.453245 -823.6902 -17.527252 C -825.3453 -18.477413 -829.6874 -24.93953 -832.3285 -37.33249 C -830.4128 -40.24427 -827.2099 -29.782285 -824.6046 -29.35318 C -826.2801 -39.20727 -829.1664 -46.72171 -829.2839 -54.28213 C -836.8954 -70.189665 -831.976 -52.16215 -838.152 -61.11205 C -846.254 -86.38327 -831.4294 -66.97649 -830.4282 -78.46015 C -818.1476 -60.66762 -811.144 -33.092523 -807.9308 -21.670158 C -810.3828 -35.595635 -814.3469 -49.0869 -819.1846 -62.13884 C -815.4555 -60.57056 -825.19205 -90.79181 -814.3367 -70.77713 C -825.9328 -113.44242 -863.9647 -153.30831 -898.9521 -172.01524 C -894.6713 -168.0971 -889.2666 -163.17772 -891.2078 -162.40636 C -908.607 -172.76618 -905.5471 -173.5733 -908.04 -177.9512 C -922.2157 -183.71857 -923.1455 -177.48633 -932.5347 -177.94098 C -959.2516 -192.11166 -964.4008 -190.60468 -988.9875 -199.48307 L -987.8688 -194.25718 C -1005.5694 -200.15227 -1008.4914 -192.0197 -1027.6223 -194.23675 C -1028.787 -195.14604 -1021.4922 -197.52655 -1015.4899 -198.40009 C -1032.603 -196.14218 -1031.801 -201.77163 -1048.5463 -197.77686 C -1044.4187 -200.67332 -1040.0561 -202.58897 -1035.6527 -205.05121 C -1049.6088 -204.20322 -1068.9696 -196.92887 -1062.9928 -203.54424 C -1085.7558 -193.38875 -1126.1836 -179.13123 -1148.87 -157.85989 L -1149.5852 -162.62602 C -1159.9807 -150.14622 -1194.917 -125.35519 -1197.7011 -109.19224 L -1200.48 -108.54347 C -1205.8899 -99.38413 -1209.3891 -89.00387 -1213.6801 -79.57889 C -1220.7553 -67.523085 -1224.0502 -74.94047 -1223.0438 -73.050365 C -1236.9591 -44.836716 -1243.8707 -21.12867 -1249.8425 -1.686129 C -1245.5872 4.673819 -1249.7403 36.60127 -1248.1311 62.153445 C -1255.1194 188.35116 -1159.5618 310.88105 -1055.1106 339.17132 C -1039.8007 344.64752 -1017.0326 344.43808 -997.6667 345 C -1020.5165 338.46637 -1023.4692 341.5365 -1045.7264 333.77686 C -1061.7821 326.21644 -1065.3018 317.58326 -1076.6731 307.71385 L -1072.1726 315.6676 C -1094.4758 307.77515 -1085.1428 305.90037 -1103.2878 300.15343 L -1098.4808 293.8752 C -1105.7092 293.3286 -1117.627 281.6917 -1120.8862 275.25 L -1128.794 275.56163 C -1138.2956 263.83787 -1143.358 255.3886 -1142.9902 248.84474 L -1145.5444 253.39632 C -1148.4409 248.42585 -1180.5011 209.42839 -1163.8682 218.506 C -1166.9588 215.68106 -1171.066 213.90845 -1175.5205 205.81675 L -1172.1336 201.9446 C -1180.1384 191.64607 -1186.8662 178.44599 -1186.3554 174.04766 C -1182.0847 179.81504 -1179.1219 180.8929 -1176.1897 181.87883 C -1196.4036 131.72464 -1197.5376 179.11519 -1212.8475 130.82556 L -1209.6088 130.56503 C -1212.0914 126.82569 -1213.5984 122.76452 -1215.5958 118.77997 L -1214.1859 104.73189 C -1228.7397 87.90485 -1218.2573 33.183755 -1216.1577 3.1719518 C -1214.7018 -9.031997 -1204.01 -22.022637 -1195.8774 -42.394905 L -1200.8325 -43.248006 C -1191.3616 -59.768546 -1146.7551 -109.5958 -1126.0968 -107.03139 C -1116.0894 -119.60314 -1128.084 -107.07736 -1130.0404 -110.24457 C -1108.059 -132.99224 -1101.1474 -126.31557 -1086.3126 -130.40739 C -1070.3131 -139.90389 -1100.044 -126.7038 -1092.458 -134.02924 C -1064.8012 -141.09415 -1072.8571 -150.09002 -1036.7765 -153.67612 C -1032.9708 -151.51016 -1045.609 -150.33012 -1048.7813 -147.5205 C -1025.7373 -158.79472 -975.859 -156.23031 -943.4615 -141.26272 C -905.8689 -123.69496 -863.6327 -71.76305 -861.9674 -22.90128 L -860.0721 -22.390442 C -861.0325 -2.9683353 -857.0991 19.493264 -863.9137 40.12606 L -859.2752 30.358814" fill="#900"/>
      <path d="M -1087.2117 96.29794 L -1088.499 102.73451 C -1082.466 110.92837 -1077.6794 119.80676 -1069.976 126.21268 C -1075.5186 115.3931 -1079.636 110.92326 -1087.2117 96.29794" fill="#900"/>
      <path d="M -1072.949 95.73601 C -1076.1418 92.20612 -1078.0319 87.95593 -1080.1468 83.72108 C -1078.1239 91.164 -1073.981 97.55971 -1070.1241 104.06269 L -1072.949 95.73601" fill="#900"/>
      <path d="M -820.5741 40.8821 L -821.9227 44.263857 C -824.3951 61.82651 -829.7334 79.20526 -837.9171 95.31713 C -828.8752 78.3164 -823.0261 59.72185 -820.5741 40.8821" fill="#900"/>
      <path d="M -1020.0108 -206.2568 C -1013.8041 -208.53003 -1004.752 -207.50324 -998.1673 -209 C -1006.7494 -208.27972 -1015.2906 -207.8506 -1023.7246 -206.76252 L -1020.0108 -206.2568" fill="#900"/>
      <path d="M -1237.9093 -90.38825 C -1236.4789 -77.147295 -1247.8706 -72.00825 -1235.3857 -80.73849 C -1228.6937 -95.81336 -1238.0012 -84.90183 -1237.9093 -90.38825" fill="#900"/>
      <path d="M -1252.5806 -29.107977 C -1249.7045 -37.93528 -1249.1835 -43.23779 -1248.0852 -48.34618 C -1256.0338 -38.18559 -1251.7428 -36.01963 -1252.5806 -29.107977" fill="#900"/>
    </g>
  </g>
</svg>
